PathFileType	4	(X/Y/Z)	Patient4_TMGait_0pt6_01_left_30.trc.trc
DataRate	CameraRate	NumFrames	NumMarkers	Units	OrigDataRate	OrigDataStartFrame	OrigNumFrames
86.419753086420	86.419753086420	4	33	mm	86.419753086420	71	       141
Frame#	Time	Sacral			L.Shoulder			Chest			R.Shoulder			Neck			R.ASIS			L.ASIS			R.Thigh.Superior			R.Thigh.Lateral			R.Thigh.Inferior			R.Patella			L.Thigh.Superior			L.Thigh.Lateral			L.Thigh.Inferior			L.Patella			L.Shank.Superior			L.Shank.Lateral			L.Shank.Inferior			R.Shank.Superior			R.Shank.Lateral			R.Shank.Inferior			R.Heel			R.Midfoot.Superior			R.Midfoot.Lateral			R.Toe			L.Heel			L.Midfoot.Lateral			L.Midfoot.Superior			L.Toe			L.Elbow			L.Wrist			R.Elbow			R.Wrist			
		X1	Y1	Z1	X2	Y2	Z2	X3	Y3	Z3	X4	Y4	Z4	X5	Y5	Z5	X6	Y6	Z6	X7	Y7	Z7	X8	Y8	Z8	X9	Y9	Z9	X10	Y10	Z10	X11	Y11	Z11	X12	Y12	Z12	X13	Y13	Z13	X14	Y14	Z14	X15	Y15	Z15	X16	Y16	Z16	X17	Y17	Z17	X18	Y18	Z18	X19	Y19	Z19	X20	Y20	Z20	X21	Y21	Z21	X22	Y22	Z22	X23	Y23	Z23	X24	Y24	Z24	X25	Y25	Z25	X26	Y26	Z26	X27	Y27	Z27	X28	Y28	Z28	X29	Y29	Z29	X30	Y30	Z30	X31	Y31	Z31	X32	Y32	Z32	X33	Y33	Z33	

71	37.320000000000	722.805284394769	1003.393507896313	434.193368709348	919.259261371711	1436.017186550293	279.365247839079	1001.165355471733	1362.505775319103	449.526228156724	896.435156905416	1430.221116909374	612.950729501251	879.780499959554	1492.022296228256	432.258201852004	938.821982589764	940.639280878285	571.876912658043	947.081435841983	959.063225880400	296.644423002656	1012.929410863549	765.436693213469	544.354163849175	965.371783466034	642.286803244891	612.811996831592	1056.660465922780	606.064472775056	535.512436355114	1088.712004058582	521.442744310114	552.079245471475	949.500334847316	730.478608030602	325.930393198110	834.810789998272	635.390228772113	261.452667758518	892.538366981156	543.225299709948	328.858149205008	877.242423935225	477.485277441279	338.443645383170	846.734569176709	410.901820586874	330.915392308581	747.931123666509	302.765188834595	281.902738784788	790.476976305629	190.077417268536	356.939413233573	1069.783491365946	432.092384546022	558.968241995599	1009.962801436775	318.121719240080	615.332222286718	1079.487493638561	231.849454994241	564.537244406089	984.786693642141	46.496859702538	526.200272828556	1144.838819243545	117.362463550189	573.899398840138	1065.277234936708	42.877679082217	604.080296502367	1268.018915146913	80.916886123796	607.695897151833	656.183370817717	38.411411418710	408.245960356087	725.666116433926	34.610398695249	323.625041433398	810.203229655494	95.294771436182	346.353978739776	937.306278649155	42.823788349161	311.826484176193	1020.121797548715	1118.537561249304	125.276951901253	1270.225095460711	1046.493759110204	135.269255093933	741.051994899551	1117.981790441065	704.170805209222	694.707497381204	861.178388069300	707.748234081706	
72	37.331571428571	724.829184836744	1001.453505074301	435.655183415999	919.657789408366	1434.417136422330	280.770228594646	1001.477876523026	1361.605965748796	451.194530396597	896.183102388869	1429.333411350949	614.317851927651	879.834643768475	1490.537855438207	433.511827369999	940.915287117998	938.793358211192	573.348039676823	949.227066235854	957.906246982938	298.111972171995	1014.532794221345	762.537902807716	546.006013444158	964.665695429836	639.238347165204	612.834799317888	1056.594475516047	603.063997008217	536.488660625001	1087.191482175356	518.420181259195	551.975375291204	950.103176889935	728.924495032163	326.605830008924	834.387179987102	634.627950092610	262.360834979148	891.369583330857	541.879736857588	329.519471298143	875.549787291043	475.888594248823	339.052528183533	844.045150093104	409.675408864496	331.475254578166	743.733305635557	302.908567281608	282.288308188422	784.787043883433	189.500167092527	357.031204412412	1068.668261401986	428.849303329188	558.634954543156	1008.570163176305	314.640372142959	613.975420095052	1078.436007348843	228.748626741259	563.183445272265	983.581663236437	44.579162514107	523.979517322650	1143.915754238619	114.221644253112	572.037553326373	1063.589794880221	41.089473619780	602.357383837365	1266.577963691352	77.091840179715	606.600065620808	649.164157515230	38.458351850769	408.090892197787	718.703304600913	34.540540035916	323.566404811522	803.295793145086	95.226705719864	346.315605535975	930.381287768483	42.537497843632	311.823606837341	1022.082710700020	1117.685087482714	126.656711895789	1273.395278712653	1051.060659814077	137.375399009020	737.278478566850	1119.730155152163	705.509294168416	687.852142348884	863.433925416980	709.071538600933	
73	37.343142857143	726.924301881018	999.525109679376	437.337584210058	919.968382362513	1432.820092842391	282.246485543624	1001.822048577058	1360.773145829419	452.903460086194	895.999771965321	1428.425103952782	615.794846902715	879.906260262095	1489.079244099013	434.863493455379	943.169087880398	936.994700176889	574.920799625214	951.436268727851	956.743530291546	299.720076510531	1016.581340081585	759.801230572521	547.732352986330	964.334612185163	636.374657697424	612.749771201602	1056.997388770832	600.305236366339	537.446691437817	1086.018266616263	515.359855589852	551.776485088534	951.053035770563	727.410036406727	327.382940601620	834.357185515430	633.805578467333	263.466247255376	890.747695779745	540.486056242152	330.305925812761	874.468048132662	474.130123213566	339.804979432040	841.827396306582	408.322327469727	332.170665991081	739.856498323112	303.107845240670	282.812676995856	779.230460444625	188.899398996170	357.179386133954	1067.537428107812	425.526728142105	558.170059177176	1006.731005929461	311.386569460667	612.658781614601	1076.300143576327	225.520197290751	561.707604553416	980.125129669207	43.172709502365	521.949220839288	1141.204429982261	110.859101227123	570.033089242668	1059.755429285655	39.578442694684	600.729515518298	1263.208147979506	72.481180464435	605.146238816898	642.130580378515	38.595626944801	407.889478311059	711.753561079276	34.492564132065	323.499420570453	796.424067859728	95.178343476832	346.258830590970	923.482805881587	42.214696046569	311.805959291680	1023.623481012725	1116.559666448193	128.259518173427	1275.906701066222	1054.715831448449	139.562592509995	734.364620408965	1120.979109030581	706.866742222828	682.404486543753	865.111026825413	710.528574942732	
74	37.354714285714	729.052912046097	997.692243358022	439.205356698116	920.220971722209	1431.297823809307	283.796098841464	1002.221994524510	1360.049154385345	454.650196813483	895.919930040645	1427.531445851744	617.384139626556	880.030577250014	1487.711965774184	436.319577203429	945.539932749561	935.325479241296	576.595592029489	953.677746109393	955.624936353195	301.469352527529	1018.982445582209	757.301246623243	549.506080404314	964.382572062619	633.813754757472	612.646336941637	1057.793673591232	597.867419397600	538.377607126682	1085.192762657659	512.402936446535	551.521743333992	952.320469921616	725.984649748759	328.272295627962	834.713950225224	632.953604571289	264.765862981725	890.692739005932	539.081482098968	331.214106435845	874.033097964925	472.236178387580	340.670185152712	840.096601930432	406.877031266913	332.983256090900	736.315013971086	303.410655209064	283.466958556272	773.830994678112	188.324490675529	357.367298403037	1066.465367634643	422.283436609889	557.638567605273	1004.681989470413	308.458794710396	611.528833725267	1073.373134246929	222.317382319288	560.214520955670	974.933905957387	42.201348695002	520.226410822555	1137.090668226601	107.519219179878	568.056859677500	1054.304160420826	38.369690375725	599.309090827912	1258.376451532925	67.539865460346	603.488438548557	635.092187459240	38.908121136052	407.633715542342	704.825304138384	34.501100659102	323.419640117473	789.620012737666	95.163557734043	346.162620548065	916.618462109214	41.855366029981	311.769796984222	1024.713801157996	1115.188129307904	130.094148960184	1277.764344585323	1057.423666993883	141.819147602670	732.378711241801	1121.689785218069	708.255848491073	678.430628269333	866.168472520664	712.117662266421	
